<?xml version="1.0" encoding="utf-8"?>
<svg viewBox="36.099998474121094 11.200000762939453 227.60000610351562 270" width="227.60000610351562" height="270" xmlns="http://www.w3.org/2000/svg">
  <defs>
    <style type="text/css">
	.st0{fill:#642E27;}
	.st1{fill:#AA3324;}
	.st2{fill:#E33526;}
	.st3{fill:#FFFFFF;}
</style>
  </defs>
  <g id="Layer_2" transform="matrix(1, 0, 0, 1, 0, 0)">
    <polygon class="st0" points="36.1,99.3 149.6,186.9 149.9,281.2 41.9,186.9 &#9;"/>
  </g>
  <g id="Layer_3" transform="matrix(1, 0, 0, 1, 0, 0)">
    <polygon class="st1" points="263.7,99 149.9,186.9 149.9,281.2 257.9,186.9 &#9;"/>
  </g>
  <g id="Layer_4" transform="matrix(1, 0, 0, 1, 0, 0)">
    <polygon class="st2" points="149.6,11.2 36.1,99.3 149.9,186.9 263.7,99 &#9;"/>
  </g>
  <g id="Layer_5" transform="matrix(1, 0, 0, 1, 0, 0)">
    <g>
      <path class="st3" d="M117.1,66.8c1.8,0.6,2.8,1,3,1c0.5,0,1-0.2,1.3-0.6c0.3-0.4,0.5-0.8,0.6-1.3h1.2v9.7H122c-1-2.1-2-3.8-3.1-5&#10;&#9;&#9;&#9;c-2-2.2-4.2-3.2-6.6-3.2c-2.8,0-4.2,1-5.4,3.4c-1.2,2.4-1.8,5.7-1.8,9.7c0,3,0.4,5.6,1.1,7.5c1.3,3.6,3.1,5.2,6.6,5.2&#10;&#9;&#9;&#9;c2.1,0,4.1-0.6,6-1.8c1.1-0.7,2.7-2.3,4.1-3.8l-0.1,2.5c-1.6,1.8-2.2,2.1-3.4,3c-2.2,1.4-4.6,2.2-7.3,2.2c-4.1,0-7.6-1.2-10.3-3.7&#10;&#9;&#9;&#9;c-3.1-2.7-4.6-6.3-4.6-10.9c0-4.5,1.5-8.2,4.4-11c2.8-2.6,6.2-3.9,10.2-3.9C113.5,65.8,115.3,66.1,117.1,66.8z"/>
    </g>
    <g>
      <path class="st3" d="M125.1,86.6c1.8-1.1,4.5-2.2,8.3-3.4v-3.1c0-1.3-0.3-2.2-0.8-2.8c-0.5-0.6-1.4-0.9-2.7-0.9&#10;&#9;&#9;&#9;c-0.7,0-1.3,0.1-1.8,0.4c-0.5,0.3-0.7,0.6-0.7,1.1c0,0.2,0,0.3,0.1,0.4c0.1,0.1,0.1,0.2,0.2,0.4l0.2,0.3c0.2,0.2,0.3,0.5,0.4,0.8&#10;&#9;&#9;&#9;c0.1,0.3,0.2,0.6,0.2,0.9c0,0.8-0.3,1.4-0.8,1.9c-0.5,0.4-1.1,0.7-1.8,0.7c-0.8,0-1.4-0.2-2-0.7c-0.6-0.5-0.8-1.2-0.8-2.1&#10;&#9;&#9;&#9;c0-1.6,0.7-2.9,2.2-3.9c1.5-0.9,3.3-1.4,5.4-1.4c2.3,0,4.2,0.5,5.8,1.4c1.5,0.9,2.3,2.7,2.3,5.2v10.3c0,0.3,0.1,0.6,0.2,0.8&#10;&#9;&#9;&#9;c0.2,0.2,0.3,0.3,0.5,0.3c0.2,0,0.3,0,0.4-0.1c0.1-0.1,0.7-0.2,1-0.5l0.3,0.9c-0.8,1-1.7,1.6-2.6,2c-0.6,0.2-1.3,0.4-1.9,0.4&#10;&#9;&#9;&#9;c-1.2,0-2.1-0.4-2.6-1.1c-0.3-0.4-0.6-1-0.7-1.8c-1.1,1.2-2.4,2-3.8,2.5c-0.9,0.3-1.7,0.5-2.5,0.5c-1.1,0-2.2-0.4-3.1-1.1&#10;&#9;&#9;&#9;c-1-0.7-1.5-1.9-1.5-3.5C122.4,89.3,123.3,87.8,125.1,86.6z M132.3,91.4c0.3-0.2,0.6-0.6,1-1.1v-5.6c-1,0.3-1.8,0.6-2.5,1.2&#10;&#9;&#9;&#9;c-1.2,0.9-1.8,2.1-1.8,3.5c0,0.8,0.2,1.5,0.5,1.9c0.4,0.4,0.8,0.7,1.2,0.7C131.3,92,131.8,91.8,132.3,91.4z"/>
    </g>
    <g>
      <path class="st3" d="M174.6,108.9c1.8-1.1,4.5-2.2,8.3-3.4v-3.1c0-1.3-0.3-2.2-0.8-2.8c-0.5-0.6-1.4-0.9-2.7-0.9&#10;&#9;&#9;&#9;c-0.7,0-1.3,0.1-1.8,0.4c-0.5,0.3-0.7,0.6-0.7,1.1c0,0.2,0,0.3,0.1,0.4c0.1,0.1,0.1,0.2,0.2,0.4l0.2,0.3c0.2,0.2,0.3,0.5,0.4,0.8&#10;&#9;&#9;&#9;c0.1,0.3,0.2,0.6,0.2,0.9c0,0.8-0.3,1.4-0.8,1.9c-0.5,0.4-1.1,0.7-1.8,0.7c-0.8,0-1.4-0.2-2-0.7c-0.6-0.5-0.8-1.2-0.8-2.1&#10;&#9;&#9;&#9;c0-1.6,0.7-2.9,2.2-3.9c1.5-0.9,3.3-1.4,5.4-1.4c2.3,0,4.2,0.5,5.8,1.4c1.5,0.9,2.3,2.7,2.3,5.2v10.3c0,0.3,0.1,0.6,0.2,0.8&#10;&#9;&#9;&#9;c0.2,0.2,0.3,0.3,0.5,0.3c0.2,0,0.3,0,0.4-0.1c0.1-0.1,0.7-0.2,1-0.5l0.3,0.9c-0.8,1-1.7,1.6-2.6,2c-0.6,0.2-1.3,0.4-1.9,0.4&#10;&#9;&#9;&#9;c-1.2,0-2.1-0.4-2.6-1.1c-0.3-0.4-0.6-1-0.7-1.8c-1.1,1.2-2.4,2-3.8,2.5c-0.9,0.3-1.7,0.5-2.5,0.5c-1.1,0-2.2-0.4-3.1-1.1&#10;&#9;&#9;&#9;c-1-0.7-1.5-1.9-1.5-3.5C172,111.6,172.9,110.1,174.6,108.9z M181.9,113.7c0.3-0.2,0.6-0.6,1-1.1V107c-1,0.3-1.8,0.6-2.5,1.2&#10;&#9;&#9;&#9;c-1.2,0.9-1.8,2.1-1.8,3.5c0,0.8,0.2,1.5,0.5,1.9c0.4,0.4,0.8,0.7,1.2,0.7C180.8,114.3,181.4,114.1,181.9,113.7z"/>
    </g>
    <g>
      <path class="st3" d="M140.8,88.4h1.1c0.4,2,1.1,3.4,2.2,4.2c1.1,0.8,2.2,1.2,3.3,1.2c1,0,1.8-0.2,2.3-0.7c0.5-0.5,0.7-1.1,0.7-1.9&#10;&#9;&#9;&#9;c0-0.8-0.3-1.4-0.8-1.9c-0.3-0.3-0.8-0.6-1.4-0.9l-3-1.5c-1.6-0.8-2.7-1.7-3.4-2.6c-0.7-0.9-1-2.1-1-3.3c0-1.6,0.5-3,1.6-4.2&#10;&#9;&#9;&#9;c1.1-1.2,2.6-1.8,4.6-1.8c0.9,0,1.8,0.1,2.7,0.4c1,0.3,1.6,0.4,1.8,0.4c0.3,0,0.6-0.1,0.7-0.2s0.3-0.3,0.3-0.6h0.9v6.1h-1&#10;&#9;&#9;&#9;c-0.4-1.4-1-2.6-1.9-3.4c-0.9-0.9-1.9-1.3-3-1.3c-0.9,0-1.6,0.3-2,0.8c-0.4,0.5-0.7,1.1-0.7,1.7c0,0.5,0.2,1,0.6,1.5&#10;&#9;&#9;&#9;c0.4,0.5,1.1,1,2.2,1.6l2.2,1.1c1.4,0.7,2.4,1.3,3,2c1,1.1,1.6,2.4,1.6,4c0,1.6-0.5,3-1.6,4.4c-1.1,1.3-2.7,2-4.9,2&#10;&#9;&#9;&#9;c-0.5,0-1.1-0.1-1.6-0.2c-0.5-0.1-1.2-0.3-2-0.6l-0.7-0.2c-0.2-0.1-0.6-0.2-0.7-0.2c-0.2,0-0.4,0.1-0.6,0.3&#10;&#9;&#9;&#9;c-0.2,0.2-0.4,0.5-0.6,0.9h-1V88.4z"/>
    </g>
    <g>
      <path class="st3" d="M111.6,110.9h1.1c0.4,2,1.1,3.4,2.2,4.2c1.1,0.8,2.2,1.2,3.3,1.2c1,0,1.8-0.2,2.3-0.7&#10;&#9;&#9;&#9;c0.5-0.5,0.7-1.1,0.7-1.9c0-0.8-0.3-1.4-0.8-1.9c-0.3-0.3-0.8-0.6-1.4-0.9l-3-1.5c-1.6-0.8-2.7-1.7-3.4-2.6c-0.7-0.9-1-2.1-1-3.3&#10;&#9;&#9;&#9;c0-1.6,0.5-3,1.6-4.2c1.1-1.2,2.6-1.8,4.6-1.8c0.9,0,1.8,0.1,2.7,0.4c1,0.3,1.6,0.4,1.8,0.4c0.3,0,0.6-0.1,0.7-0.2&#10;&#9;&#9;&#9;c0.1-0.1,0.3-0.3,0.3-0.6h0.9v6.1h-1c-0.4-1.4-1-2.6-1.9-3.4c-0.9-0.9-1.9-1.3-3-1.3c-0.9,0-1.6,0.3-2,0.8&#10;&#9;&#9;&#9;c-0.4,0.5-0.7,1.1-0.7,1.7c0,0.5,0.2,1,0.6,1.5c0.4,0.5,1.1,1,2.2,1.6l2.2,1.1c1.4,0.7,2.4,1.3,3,2c1,1.1,1.6,2.4,1.6,4&#10;&#9;&#9;&#9;c0,1.6-0.5,3-1.6,4.4c-1.1,1.3-2.7,2-4.9,2c-0.5,0-1.1-0.1-1.6-0.2c-0.5-0.1-1.2-0.3-2-0.6l-0.7-0.2c-0.2-0.1-0.6-0.2-0.7-0.2&#10;&#9;&#9;&#9;c-0.2,0-0.4,0.1-0.6,0.3c-0.2,0.2-0.4,0.5-0.6,0.9h-1V110.9z"/>
    </g>
    <g>
      <path class="st3" d="M97.2,110.8h1.1c0.4,2,1.1,3.4,2.2,4.2c1.1,0.8,2.2,1.2,3.3,1.2c1,0,1.8-0.2,2.3-0.7c0.5-0.5,0.7-1.1,0.7-1.9&#10;&#9;&#9;&#9;c0-0.8-0.3-1.4-0.8-1.9c-0.3-0.3-0.8-0.6-1.4-0.9l-3-1.5c-1.6-0.8-2.7-1.7-3.4-2.6c-0.7-0.9-1-2.1-1-3.3c0-1.6,0.5-3,1.6-4.2&#10;&#9;&#9;&#9;c1.1-1.2,2.6-1.8,4.6-1.8c0.9,0,1.8,0.1,2.7,0.4c1,0.3,1.6,0.4,1.8,0.4c0.3,0,0.6-0.1,0.7-0.2c0.1-0.1,0.3-0.3,0.3-0.6h0.9v6.1h-1&#10;&#9;&#9;&#9;c-0.4-1.4-1-2.6-1.9-3.4c-0.9-0.9-1.9-1.3-3-1.3c-0.9,0-1.6,0.3-2,0.8c-0.4,0.5-0.7,1.1-0.7,1.7c0,0.5,0.2,1,0.6,1.5&#10;&#9;&#9;&#9;c0.4,0.5,1.1,1,2.2,1.6l2.2,1.1c1.4,0.7,2.4,1.3,3,2c1,1.1,1.6,2.4,1.6,4c0,1.6-0.5,3-1.6,4.4c-1.1,1.3-2.7,2-4.9,2&#10;&#9;&#9;&#9;c-0.5,0-1.1-0.1-1.6-0.2c-0.5-0.1-1.2-0.3-2-0.6l-0.7-0.2c-0.2-0.1-0.6-0.2-0.7-0.2c-0.2,0-0.4,0.1-0.6,0.3&#10;&#9;&#9;&#9;c-0.2,0.2-0.4,0.5-0.6,0.9h-1V110.8z"/>
    </g>
    <g>
      <path class="st3" d="M218.1,110.9h1.1c0.4,2,1.1,3.4,2.2,4.2c1.1,0.8,2.2,1.2,3.3,1.2c1,0,1.8-0.2,2.3-0.7&#10;&#9;&#9;&#9;c0.5-0.5,0.7-1.1,0.7-1.9c0-0.8-0.3-1.4-0.8-1.9c-0.3-0.3-0.8-0.6-1.4-0.9l-3-1.5c-1.6-0.8-2.7-1.7-3.4-2.6c-0.7-0.9-1-2.1-1-3.3&#10;&#9;&#9;&#9;c0-1.6,0.5-3,1.6-4.2c1.1-1.2,2.6-1.8,4.6-1.8c0.9,0,1.8,0.1,2.7,0.4c1,0.3,1.6,0.4,1.8,0.4c0.3,0,0.6-0.1,0.7-0.2&#10;&#9;&#9;&#9;c0.1-0.1,0.3-0.3,0.3-0.6h0.9v6.1h-1c-0.4-1.4-1-2.6-1.9-3.4c-0.9-0.9-1.9-1.3-3-1.3c-0.9,0-1.6,0.3-2,0.8&#10;&#9;&#9;&#9;c-0.4,0.5-0.7,1.1-0.7,1.7c0,0.5,0.2,1,0.6,1.5c0.4,0.5,1.1,1,2.2,1.6l2.2,1.1c1.4,0.7,2.4,1.3,3,2c1,1.1,1.6,2.4,1.6,4&#10;&#9;&#9;&#9;c0,1.6-0.5,3-1.6,4.4c-1.1,1.3-2.7,2-4.9,2c-0.5,0-1.1-0.1-1.6-0.2c-0.5-0.1-1.2-0.3-2-0.6l-0.7-0.2c-0.2-0.1-0.6-0.2-0.7-0.2&#10;&#9;&#9;&#9;c-0.2,0-0.4,0.1-0.6,0.3c-0.2,0.2-0.4,0.5-0.6,0.9h-1V110.9z"/>
    </g>
    <g>
      <path class="st3" d="M127.8,100.6c1.9-1.9,4.3-2.8,7.1-2.8c2.9,0,5.3,1,7.2,2.9c1.9,1.9,2.8,4.3,2.8,7c0,2.7-0.9,5-2.8,7&#10;&#9;&#9;&#9;c-1.8,2-4.3,2.9-7.2,2.9c-2.9,0-5.3-1-7.2-2.9c-1.9-1.9-2.8-4.3-2.8-7.1C125,104.9,125.9,102.5,127.8,100.6z M132,113.7&#10;&#9;&#9;&#9;c0.5,1.8,1.5,2.6,3,2.6c1.4,0,2.4-0.7,2.8-2c0.4-1.4,0.7-3.5,0.7-6.6c0-3-0.2-5.2-0.7-6.6c-0.5-1.4-1.4-2-2.8-2&#10;&#9;&#9;&#9;c-1.5,0-2.5,0.9-3,2.6c-0.3,1.2-0.5,3.2-0.5,6C131.5,110.6,131.7,112.6,132,113.7z"/>
    </g>
    <g>
      <path class="st3" d="M68.9,115.9c1.1-0.1,2-0.5,2.7-1.4c0.4-0.5,1.1-1.7,1.9-3.5l10.3-22.9h1.3l10.4,21.9c1.2,2.5,2,4,2.6,4.8&#10;&#9;&#9;&#9;c0.6,0.7,1.4,1.1,2.5,1v1.1H85.5v-1.1c1.5-0.1,2.5-0.2,3-0.3c0.5-0.2,0.7-0.6,0.7-1.3c0-0.3-0.1-0.8-0.4-1.5&#10;&#9;&#9;&#9;c-0.2-0.4-0.4-0.9-0.6-1.4l-1.2-2.5H76.6c-0.7,1.7-1.1,2.7-1.3,3.2c-0.4,1.1-0.6,1.9-0.6,2.3c0,0.6,0.4,1,1.3,1.3&#10;&#9;&#9;&#9;c0.5,0.1,1.3,0.2,2.4,0.2v1.1h-9.5V115.9z M86.3,107.1l-4.5-9.7h-0.4l-4.2,9.7H86.3z"/>
    </g>
    <g>
      <path class="st3" d="M160,99c1.3,0.8,1.9,1.9,1.9,3.2c0,0.7-0.3,1.3-0.8,1.8c-0.5,0.5-1.1,0.8-1.9,0.8c-0.5,0-1-0.1-1.4-0.4&#10;&#9;&#9;&#9;c-0.7-0.4-1.1-1.2-1.1-2.3c0-0.1,0-0.3,0-0.5c0-0.2,0-0.5,0-0.7c0-0.7-0.2-1.2-0.5-1.5c-0.3-0.3-0.7-0.4-1.2-0.4&#10;&#9;&#9;&#9;c-1.3,0-2.2,0.7-2.7,2.1c-0.5,1.4-0.8,3-0.8,4.8c0,2.5,0.5,4.7,1.5,6.4c1,1.7,2.4,2.6,4.1,2.6c1.1,0,2-0.2,2.8-0.7&#10;&#9;&#9;&#9;c0.5-0.3,1-0.8,1.7-1.5l0.8,0.7c-1.3,1.8-2.9,3.1-4.7,3.8c-1,0.4-2,0.5-3,0.5c-2.6,0-4.8-0.9-6.5-2.8c-1.7-1.9-2.5-4.1-2.5-6.8&#10;&#9;&#9;&#9;c0-2.8,0.9-5.2,2.7-7.2c1.8-2,4.2-3,7.1-3C157.2,97.8,158.7,98.2,160,99z"/>
    </g>
    <g>
      <path class="st3" d="M162,116.2c0.8-0.1,1.3-0.3,1.6-0.5c0.4-0.4,0.6-1,0.6-2v-12.2c0-0.8-0.1-1.4-0.4-1.7&#10;&#9;&#9;&#9;c-0.3-0.3-0.9-0.5-1.8-0.7v-1h8.3v15.8c0,0.9,0.1,1.5,0.4,1.7c0.3,0.3,0.8,0.5,1.6,0.6v1H162V116.2z"/>
    </g>
    <g>
      <path class="st3" d="M188.9,100.3v-1.1c0.4-0.3,0.9-0.7,1.4-1.2c0.8-0.7,1.5-1.3,2.1-2c1.3-1.4,2.5-2.8,3.6-4.4h1.1v7h4.2v1.8&#10;&#9;&#9;&#9;h-4.2v12.4c0,0.6,0.1,1.1,0.3,1.5c0.3,0.6,0.8,0.9,1.4,0.9c0.6,0,1-0.2,1.4-0.6s0.8-0.9,1.2-1.6l1,0.5c-0.5,1.1-1.1,2-1.8,2.8&#10;&#9;&#9;&#9;c-1.2,1.2-2.8,1.9-4.6,1.9c-1,0-1.9-0.2-2.7-0.5c-1.5-0.7-2.2-2-2.2-3.8v-13.4H188.9z"/>
    </g>
    <g>
      <path class="st3" d="M157.5,77.6c1.8-1.8,4-2.6,6.5-2.6c1.5,0,2.8,0.4,4.1,1.1c1.3,0.7,2.3,1.7,3,3c0.5,1,0.9,2.2,1.1,3.7&#10;&#9;&#9;&#9;c0.1,0.7,0.2,1.3,0.2,1.6H161c0.1,1.7,0.4,3.1,0.9,4.3c0.9,2.3,2.4,3.4,4.6,3.4c1,0,2-0.3,2.9-0.9c0.6-0.4,1.3-1,2.1-1.8l1,0.6&#10;&#9;&#9;&#9;c-1.4,2.1-2.9,3.6-4.7,4.4c-1.2,0.5-2.5,0.8-4,0.8c-2.2,0-4.2-0.8-6.1-2.4c-1.9-1.6-2.8-4.2-2.8-7.7&#10;&#9;&#9;&#9;C154.8,81.9,155.7,79.4,157.5,77.6z M166.9,82.9c0-2.4-0.2-4.2-0.6-5.1s-1.1-1.5-2.2-1.5c-1.2,0-1.9,0.6-2.4,1.7&#10;&#9;&#9;&#9;c-0.4,1.1-0.7,2.8-0.7,4.9H166.9z"/>
    </g>
    <g>
      <path class="st3" d="M202.8,100.3c1.8-1.8,4-2.6,6.5-2.6c1.5,0,2.8,0.4,4.1,1.1c1.3,0.7,2.3,1.7,3,3c0.5,1,0.9,2.2,1.1,3.7&#10;&#9;&#9;&#9;c0.1,0.7,0.2,1.3,0.2,1.6h-11.3c0.1,1.7,0.4,3.1,0.9,4.3c0.9,2.3,2.4,3.4,4.6,3.4c1,0,2-0.3,2.9-0.9c0.6-0.4,1.3-1,2.1-1.8l1,0.6&#10;&#9;&#9;&#9;c-1.4,2.1-2.9,3.6-4.7,4.4c-1.2,0.5-2.5,0.8-4,0.8c-2.2,0-4.2-0.8-6.1-2.4c-1.9-1.6-2.8-4.2-2.8-7.7&#10;&#9;&#9;&#9;C200.1,104.5,201,102.1,202.8,100.3z M212.2,105.5c0-2.4-0.2-4.2-0.6-5.1c-0.4-1-1.1-1.5-2.2-1.5c-1.2,0-1.9,0.6-2.4,1.7&#10;&#9;&#9;&#9;c-0.4,1.1-0.7,2.8-0.7,4.9H212.2z"/>
    </g>
    <g>
      <path class="st3" d="M185.4,74.9c-0.3-0.9-0.5-1.8-0.5-2.7c0-1.9,0.7-3.5,2.1-4.8c1.4-1.3,3.4-1.9,6.1-1.9c2.2,0,4.5,0.3,5.6,1.3&#10;&#9;&#9;&#9;c1.2,1,1.9,2.4,1.9,3.8c0,1.4-0.1,2.2-1,3.3c-0.9,1.2-3.7,2.9-5.6,3.6l5.9,8.6c1.1-1.5,1.9-2.6,2.3-3.2c0.6-1,0.9-1.9,0.9-2.8&#10;&#9;&#9;&#9;c0-0.7-0.2-1.2-0.5-1.4c-0.3-0.2-1.1-0.4-2.3-0.5v-1h8.7v1c-1.1,0.2-1.9,0.4-2.3,0.8c-0.4,0.4-1.1,1.5-2.2,3.5&#10;&#9;&#9;&#9;c-0.2,0.3-0.6,1-1.4,2.1c-0.4,0.5-1.1,1.5-2.2,3c1,1.4,1.9,2.4,2.7,3c0.7,0.6,1.5,0.9,2.3,0.9c0.7,0,1.2-0.2,1.7-0.6&#10;&#9;&#9;&#9;c0.2-0.2,0.5-0.6,0.8-1l0.8,0.5c-0.6,1.3-1.3,2.4-2,3.2c-1.3,1.5-2.9,2.2-4.7,2.2c-1.3,0-2.5-0.4-3.7-1.3&#10;&#9;&#9;&#9;c-0.7-0.5-1.6-1.3-2.6-2.5c-1.6,1.2-2.9,2-3.9,2.5c-1.8,0.9-3.6,1.3-5.5,1.3c-2,0-3.8-0.7-5.4-2c-1.6-1.3-2.4-3.1-2.4-5.3&#10;&#9;&#9;&#9;c0-2.6,1-4.8,3-6.6c1.1-1,2.8-2.1,5.2-3.3C186.3,76.9,185.7,75.8,185.4,74.9z M193.5,91.8c0.4-0.2,1-0.6,1.7-1.1&#10;&#9;&#9;&#9;c-1.3-1.8-2.1-3.1-2.5-3.7c-0.4-0.6-1.3-1.9-2.5-3.9l-1.9-2.9c-1,0.7-1.7,1.2-2.1,1.6c-0.5,0.7-0.8,1.5-0.8,2.5&#10;&#9;&#9;&#9;c0,1.7,0.6,3.4,1.9,5.3c1.3,1.9,2.7,2.8,4.2,2.8C192.2,92.2,192.8,92.1,193.5,91.8z M194.8,74.7c0.7-0.6,1-1.3,1-2.3&#10;&#9;&#9;&#9;c0-1-0.3-2.1-0.9-3.2c-0.6-1.1-1.5-1.7-2.6-1.7c-0.4,0-0.8,0.1-1.2,0.3c-0.6,0.4-0.9,1-0.9,1.9c0,0.7,0.2,1.5,0.6,2.4&#10;&#9;&#9;&#9;c0.4,0.8,1.2,2,2.2,3.4C193.8,75.3,194.4,75,194.8,74.7z"/>
    </g>
  </g>
</svg>