<?xml version="1.0" encoding="utf-8"?>
<!-- Generator: Adobe Illustrator 21.1.0, SVG Export Plug-In . SVG Version: 6.00 Build 0)  -->
<svg version="1.1" id="Layer_1" xmlns="http://www.w3.org/2000/svg" xmlns:xlink="http://www.w3.org/1999/xlink" x="0px" y="0px"
	 viewBox="0 0 200 50" style="enable-background:new 0 0 200 50;" xml:space="preserve">
<g>
	<path d="M24.3,10.3v6.3h-0.5c-0.4-1.7-1.1-2.9-2.2-3.8c-1.1-0.9-2.3-1.3-3.7-1.3c-1.1,0-2.2,0.3-3.1,1c-1,0.7-1.6,1.5-2.1,2.6
		c-0.6,1.4-0.8,2.9-0.8,4.5c0,1.6,0.2,3.1,0.6,4.5c0.4,1.3,1.1,2.4,1.9,3c0.9,0.7,2,1,3.4,1c1.2,0,2.2-0.3,3.2-0.8
		c1-0.5,2-1.4,3-2.6v1.6c-1,1.1-2.1,1.8-3.2,2.3c-1.1,0.5-2.4,0.7-3.9,0.7c-2,0-3.7-0.4-5.2-1.2S9,26.4,8.2,24.9
		c-0.8-1.5-1.2-3-1.2-4.7c0-1.7,0.5-3.4,1.4-5s2.1-2.8,3.7-3.6s3.2-1.3,4.9-1.3c1.3,0,2.6,0.3,4.1,0.8c0.8,0.3,1.4,0.5,1.6,0.5
		c0.3,0,0.5-0.1,0.7-0.3c0.2-0.2,0.3-0.5,0.4-1H24.3z"/>
	<path d="M32.3,27.2c-1.5,1.4-2.9,2-4.1,2c-0.7,0-1.3-0.2-1.8-0.7c-0.5-0.5-0.7-1.1-0.7-1.8c0-1,0.4-1.8,1.2-2.6
		c0.8-0.8,2.6-1.8,5.4-3.1v-1.3c0-1-0.1-1.6-0.2-1.8c-0.1-0.2-0.3-0.5-0.6-0.6c-0.3-0.2-0.6-0.3-1-0.3c-0.6,0-1.1,0.1-1.4,0.4
		c-0.2,0.2-0.4,0.4-0.4,0.6c0,0.2,0.1,0.4,0.4,0.7c0.3,0.4,0.5,0.8,0.5,1.1c0,0.4-0.2,0.8-0.5,1.1s-0.8,0.5-1.3,0.5
		c-0.6,0-1-0.2-1.4-0.5c-0.4-0.3-0.6-0.7-0.6-1.2c0-0.6,0.3-1.3,0.8-1.9c0.5-0.6,1.2-1,2.1-1.4c0.9-0.3,1.9-0.5,2.9-0.5
		c1.2,0,2.1,0.3,2.8,0.8c0.7,0.5,1.1,1.1,1.4,1.7c0.1,0.4,0.2,1.2,0.2,2.6V26c0,0.6,0,0.9,0.1,1.1c0,0.1,0.1,0.3,0.2,0.3
		s0.2,0.1,0.3,0.1c0.2,0,0.5-0.2,0.7-0.5l0.4,0.3c-0.4,0.7-0.9,1.1-1.4,1.4c-0.5,0.3-1,0.5-1.6,0.5c-0.7,0-1.3-0.2-1.7-0.5
		C32.7,28.4,32.4,27.9,32.3,27.2z M32.3,26.2V22c-1.1,0.6-1.9,1.3-2.4,2c-0.4,0.5-0.5,1-0.5,1.5c0,0.4,0.1,0.8,0.4,1.1
		c0.2,0.2,0.5,0.4,0.9,0.4C31.2,26.9,31.7,26.7,32.3,26.2z"/>
	<path d="M45.8,16.1l0.2,4.3h-0.5c-0.5-1.3-1.1-2.1-1.7-2.6c-0.6-0.5-1.2-0.7-1.8-0.7c-0.4,0-0.7,0.1-0.9,0.4
		c-0.3,0.2-0.4,0.5-0.4,0.9c0,0.2,0.1,0.5,0.3,0.7c0.3,0.4,1.1,1,2.4,1.9c1.3,0.9,2.2,1.7,2.6,2.3s0.6,1.3,0.6,2.1
		c0,0.7-0.2,1.4-0.5,2.1s-0.8,1.2-1.5,1.6c-0.6,0.4-1.3,0.5-2.1,0.5c-0.6,0-1.4-0.2-2.4-0.6c-0.3-0.1-0.5-0.1-0.6-0.1
		c-0.3,0-0.5,0.2-0.7,0.7h-0.4l-0.2-4.5h0.5c0.4,1.2,1,2.1,1.7,2.7c0.7,0.6,1.4,0.9,2,0.9c0.4,0,0.8-0.1,1.1-0.4
		c0.3-0.3,0.4-0.6,0.4-1c0-0.4-0.1-0.8-0.4-1.1c-0.3-0.3-0.9-0.8-1.8-1.4c-1.4-1-2.3-1.7-2.7-2.2c-0.6-0.7-0.9-1.6-0.9-2.4
		c0-1,0.3-1.8,1-2.6c0.7-0.8,1.6-1.2,2.9-1.2c0.7,0,1.3,0.2,2,0.5c0.2,0.1,0.4,0.2,0.6,0.2c0.2,0,0.3,0,0.4-0.1
		c0.1-0.1,0.3-0.3,0.5-0.6H45.8z"/>
	<path d="M57.8,22.3h-6.9c0.1,1.7,0.5,3,1.3,4c0.6,0.7,1.4,1.1,2.2,1.1c0.5,0,1-0.2,1.5-0.5c0.4-0.3,0.9-0.8,1.4-1.6l0.5,0.3
		c-0.7,1.4-1.4,2.4-2.3,3s-1.8,0.9-2.9,0.9c-1.9,0-3.3-0.7-4.2-2.2c-0.8-1.2-1.2-2.6-1.2-4.3c0-2.1,0.6-3.8,1.7-5
		c1.1-1.2,2.5-1.9,4-1.9c1.3,0,2.4,0.5,3.3,1.6C57.3,18.7,57.8,20.2,57.8,22.3z M54.5,21.4c0-1.4-0.1-2.4-0.2-3
		c-0.2-0.5-0.4-0.9-0.7-1.2c-0.2-0.2-0.4-0.2-0.8-0.2c-0.5,0-0.8,0.2-1.1,0.7c-0.5,0.8-0.8,1.9-0.8,3.3v0.5H54.5z"/>
	<path d="M78.3,18.1H84v0.5c-0.6,0.1-1.1,0.3-1.5,0.6c-0.4,0.3-0.8,0.9-1.4,2c-0.6,1-1.4,2.2-2.4,3.5c0.9,0.8,1.7,1.4,2.2,1.7
		c0.4,0.2,0.8,0.3,1.2,0.3c0.7,0,1.3-0.4,1.8-1.3l0.6,0.3c-0.7,1.4-1.5,2.5-2.4,3.1c-0.6,0.5-1.4,0.7-2.2,0.7c-0.7,0-1.4-0.2-2-0.5
		s-1.4-0.9-2.3-1.7c-1.1,0.8-2.2,1.3-3.2,1.6c-1,0.3-2,0.5-3.1,0.5c-1.7,0-3.1-0.5-4.1-1.4c-1-0.9-1.5-2-1.5-3.3
		c0-1.3,0.5-2.5,1.4-3.5s2.4-1.9,4.2-2.6c-0.2-0.6-0.4-1.2-0.5-1.7s-0.2-1.1-0.2-1.6c0-1.4,0.5-2.6,1.5-3.6c1-1,2.3-1.4,3.9-1.4
		c1.3,0,2.3,0.3,3,1s1.1,1.4,1.1,2.2c0,1-0.4,1.9-1.1,2.6c-0.8,0.7-2,1.4-3.6,2c1,1.8,2.5,3.7,4.5,5.8c1.3-1.5,2-2.8,2-3.8
		c0-0.4-0.1-0.7-0.4-1s-0.6-0.4-1.1-0.5V18.1z M69.7,19.6c-0.7,0.3-1.2,0.6-1.5,1c-0.4,0.5-0.6,1.1-0.6,1.7c0,0.8,0.2,1.7,0.7,2.5
		c0.5,0.8,1.1,1.5,1.8,1.9c0.7,0.5,1.4,0.7,2.1,0.7c0.3,0,0.7-0.1,1.2-0.2c0.4-0.1,0.9-0.4,1.4-0.7C72.6,24.3,70.9,21.9,69.7,19.6z
		 M73,17.3c0.9-0.4,1.6-0.7,1.9-1.1c0.3-0.4,0.5-0.9,0.5-1.4c0-1-0.3-1.9-0.8-2.5c-0.4-0.5-0.8-0.7-1.3-0.7c-0.4,0-0.8,0.2-1.1,0.5
		c-0.3,0.3-0.5,0.8-0.5,1.3c0,0.4,0.1,0.9,0.2,1.4S72.4,16.1,73,17.3z"/>
	<path d="M99.7,23.8h-6.5l-0.8,1.8c-0.3,0.6-0.4,1.1-0.4,1.5c0,0.5,0.2,0.9,0.6,1.1c0.2,0.1,0.8,0.3,1.8,0.3V29h-6.1v-0.5
		c0.7-0.1,1.2-0.4,1.6-0.8c0.4-0.4,0.9-1.4,1.6-2.8l6.5-14.6h0.3l6.6,15c0.6,1.4,1.1,2.3,1.6,2.7c0.3,0.3,0.7,0.4,1.3,0.5V29H99
		v-0.5h0.4c0.7,0,1.2-0.1,1.5-0.3c0.2-0.1,0.3-0.4,0.3-0.6c0-0.2,0-0.3-0.1-0.5c0-0.1-0.2-0.4-0.4-1L99.7,23.8z M99.3,22.8l-2.7-6.3
		l-2.8,6.3H99.3z"/>
	<path d="M115.7,16.1l0.2,4.3h-0.5c-0.5-1.3-1.1-2.1-1.7-2.6c-0.6-0.5-1.2-0.7-1.8-0.7c-0.4,0-0.7,0.1-0.9,0.4
		c-0.3,0.2-0.4,0.5-0.4,0.9c0,0.2,0.1,0.5,0.3,0.7c0.3,0.4,1.1,1,2.4,1.9c1.3,0.9,2.2,1.7,2.6,2.3s0.6,1.3,0.6,2.1
		c0,0.7-0.2,1.4-0.5,2.1s-0.8,1.2-1.5,1.6c-0.6,0.4-1.3,0.5-2.1,0.5c-0.6,0-1.4-0.2-2.4-0.6c-0.3-0.1-0.5-0.1-0.6-0.1
		c-0.3,0-0.5,0.2-0.7,0.7h-0.4l-0.2-4.5h0.5c0.4,1.2,1,2.1,1.7,2.7s1.4,0.9,2,0.9c0.4,0,0.8-0.1,1.1-0.4s0.4-0.6,0.4-1
		c0-0.4-0.1-0.8-0.4-1.1c-0.3-0.3-0.9-0.8-1.8-1.4c-1.4-1-2.3-1.7-2.7-2.2c-0.6-0.7-0.9-1.6-0.9-2.4c0-1,0.3-1.8,1-2.6
		s1.6-1.2,2.9-1.2c0.7,0,1.3,0.2,2,0.5c0.2,0.1,0.4,0.2,0.6,0.2c0.2,0,0.3,0,0.4-0.1c0.1-0.1,0.3-0.3,0.5-0.6H115.7z"/>
	<path d="M125.1,16.1l0.2,4.3h-0.5c-0.5-1.3-1.1-2.1-1.7-2.6c-0.6-0.5-1.2-0.7-1.8-0.7c-0.4,0-0.7,0.1-0.9,0.4
		c-0.3,0.2-0.4,0.5-0.4,0.9c0,0.2,0.1,0.5,0.3,0.7c0.3,0.4,1.1,1,2.4,1.9c1.3,0.9,2.2,1.7,2.6,2.3s0.6,1.3,0.6,2.1
		c0,0.7-0.2,1.4-0.5,2.1s-0.8,1.2-1.5,1.6c-0.6,0.4-1.3,0.5-2.1,0.5c-0.6,0-1.4-0.2-2.4-0.6c-0.3-0.1-0.5-0.1-0.6-0.1
		c-0.3,0-0.5,0.2-0.7,0.7h-0.4l-0.2-4.5h0.5c0.4,1.2,1,2.1,1.7,2.7s1.4,0.9,2,0.9c0.4,0,0.8-0.1,1.1-0.4s0.4-0.6,0.4-1
		c0-0.4-0.1-0.8-0.4-1.1c-0.3-0.3-0.9-0.8-1.8-1.4c-1.4-1-2.3-1.7-2.7-2.2c-0.6-0.7-0.9-1.6-0.9-2.4c0-1,0.3-1.8,1-2.6
		s1.6-1.2,2.9-1.2c0.7,0,1.3,0.2,2,0.5c0.2,0.1,0.4,0.2,0.6,0.2c0.2,0,0.3,0,0.4-0.1c0.1-0.1,0.3-0.3,0.5-0.6H125.1z"/>
	<path d="M132.4,16c1.1,0,2.1,0.3,3.1,0.8c0.9,0.6,1.7,1.4,2.2,2.4s0.7,2.2,0.7,3.4c0,1.8-0.5,3.3-1.4,4.5c-1.1,1.5-2.6,2.2-4.5,2.2
		c-1.9,0-3.4-0.7-4.4-2c-1-1.3-1.5-2.9-1.5-4.6c0-1.8,0.5-3.4,1.6-4.7C129.2,16.7,130.6,16,132.4,16z M132.5,17
		c-0.5,0-0.9,0.2-1.2,0.5c-0.3,0.3-0.5,1-0.6,2c-0.1,1-0.2,2.4-0.2,4.3c0,1,0.1,1.9,0.2,2.7c0.1,0.6,0.3,1.1,0.6,1.5
		c0.3,0.3,0.7,0.5,1.1,0.5c0.4,0,0.7-0.1,1-0.3c0.4-0.3,0.6-0.7,0.7-1.3c0.2-0.9,0.3-2.6,0.3-5.2c0-1.5-0.1-2.6-0.3-3.1
		s-0.4-1-0.8-1.2C133.2,17.1,132.9,17,132.5,17z"/>
	<path d="M149.2,25.8l0.4,0.3c-0.6,1.1-1.3,1.9-2.2,2.5c-0.9,0.5-1.8,0.8-2.8,0.8c-1.7,0-3-0.6-4-1.9s-1.5-2.8-1.5-4.6
		c0-1.7,0.5-3.2,1.4-4.5c1.1-1.6,2.6-2.4,4.6-2.4c1.3,0,2.3,0.3,3.1,1s1.2,1.4,1.2,2.2c0,0.5-0.2,0.9-0.5,1.2
		c-0.3,0.3-0.7,0.5-1.2,0.5c-0.5,0-1-0.2-1.3-0.5c-0.3-0.4-0.6-1-0.6-1.9c-0.1-0.6-0.2-1-0.4-1.2s-0.5-0.3-0.7-0.3
		c-0.4,0-0.8,0.2-1.1,0.7c-0.5,0.7-0.7,1.8-0.7,3.2c0,1.2,0.2,2.3,0.6,3.4c0.4,1.1,0.9,1.9,1.6,2.4c0.5,0.4,1.1,0.6,1.8,0.6
		c0.4,0,0.9-0.1,1.3-0.3C148.2,26.8,148.7,26.4,149.2,25.8z"/>
	<path d="M154.7,16.4v10c0,0.9,0.1,1.5,0.3,1.7s0.6,0.4,1.2,0.4V29h-6.8v-0.5c0.6,0,1-0.2,1.2-0.5c0.2-0.2,0.3-0.8,0.3-1.6v-7.4
		c0-0.9-0.1-1.5-0.3-1.7c-0.2-0.2-0.6-0.4-1.2-0.4v-0.5H154.7z M152.8,10.3c0.6,0,1.1,0.2,1.5,0.6s0.6,0.9,0.6,1.5
		c0,0.6-0.2,1.1-0.6,1.5c-0.4,0.4-0.9,0.6-1.5,0.6s-1.1-0.2-1.5-0.6c-0.4-0.4-0.6-0.9-0.6-1.5c0-0.6,0.2-1.1,0.6-1.5
		C151.8,10.5,152.2,10.3,152.8,10.3z"/>
	<path d="M163,27.2c-1.5,1.4-2.9,2-4.1,2c-0.7,0-1.3-0.2-1.8-0.7s-0.7-1.1-0.7-1.8c0-1,0.4-1.8,1.2-2.6c0.8-0.8,2.6-1.8,5.4-3.1
		v-1.3c0-1-0.1-1.6-0.2-1.8c-0.1-0.2-0.3-0.5-0.6-0.6c-0.3-0.2-0.6-0.3-1-0.3c-0.6,0-1.1,0.1-1.4,0.4c-0.2,0.2-0.4,0.4-0.4,0.6
		c0,0.2,0.1,0.4,0.4,0.7c0.3,0.4,0.5,0.8,0.5,1.1c0,0.4-0.2,0.8-0.5,1.1s-0.8,0.5-1.3,0.5c-0.6,0-1-0.2-1.4-0.5
		c-0.4-0.3-0.6-0.7-0.6-1.2c0-0.6,0.3-1.3,0.8-1.9c0.5-0.6,1.2-1,2.1-1.4c0.9-0.3,1.9-0.5,2.9-0.5c1.2,0,2.1,0.3,2.8,0.8
		c0.7,0.5,1.1,1.1,1.4,1.7c0.1,0.4,0.2,1.2,0.2,2.6V26c0,0.6,0,0.9,0.1,1.1s0.1,0.3,0.2,0.3c0.1,0.1,0.2,0.1,0.3,0.1
		c0.2,0,0.5-0.2,0.7-0.5l0.4,0.3c-0.4,0.7-0.9,1.1-1.4,1.4c-0.5,0.3-1,0.5-1.6,0.5c-0.7,0-1.3-0.2-1.7-0.5
		C163.4,28.4,163.1,27.9,163,27.2z M163,26.2V22c-1.1,0.6-1.9,1.3-2.4,2c-0.4,0.5-0.5,1-0.5,1.5c0,0.4,0.1,0.8,0.4,1.1
		c0.2,0.2,0.5,0.4,0.9,0.4C161.9,26.9,162.4,26.7,163,26.2z"/>
	<path d="M173.5,11.8v4.6h3v1.3h-3v7.8c0,0.7,0,1.2,0.1,1.4s0.2,0.4,0.4,0.5c0.2,0.1,0.3,0.2,0.5,0.2c0.6,0,1.1-0.4,1.7-1.3l0.4,0.3
		c-0.7,1.7-1.9,2.6-3.5,2.6c-0.8,0-1.5-0.2-2-0.7c-0.6-0.4-0.9-0.9-1.1-1.5c-0.1-0.3-0.1-1.1-0.1-2.5v-6.8h-1.6v-0.5
		c1.1-0.8,2.1-1.6,2.9-2.5c0.8-0.9,1.5-1.9,2.1-3H173.5z"/>
	<path d="M187,22.3h-6.9c0.1,1.7,0.5,3,1.3,4c0.6,0.7,1.4,1.1,2.2,1.1c0.5,0,1-0.2,1.5-0.5s0.9-0.8,1.4-1.6l0.5,0.3
		c-0.7,1.4-1.4,2.4-2.3,3s-1.8,0.9-2.9,0.9c-1.9,0-3.3-0.7-4.2-2.2c-0.8-1.2-1.2-2.6-1.2-4.3c0-2.1,0.6-3.8,1.7-5
		c1.1-1.2,2.5-1.9,4-1.9c1.3,0,2.4,0.5,3.3,1.6S186.9,20.2,187,22.3z M183.7,21.4c0-1.4-0.1-2.4-0.2-3c-0.2-0.5-0.4-0.9-0.7-1.2
		c-0.2-0.2-0.4-0.2-0.8-0.2c-0.5,0-0.8,0.2-1.1,0.7c-0.5,0.8-0.8,1.9-0.8,3.3v0.5H183.7z"/>
	<path d="M195.2,16.1l0.2,4.3h-0.5c-0.5-1.3-1.1-2.1-1.7-2.6c-0.6-0.5-1.2-0.7-1.8-0.7c-0.4,0-0.7,0.1-0.9,0.4
		c-0.3,0.2-0.4,0.5-0.4,0.9c0,0.2,0.1,0.5,0.3,0.7c0.3,0.4,1.1,1,2.4,1.9c1.3,0.9,2.2,1.7,2.6,2.3s0.6,1.3,0.6,2.1
		c0,0.7-0.2,1.4-0.5,2.1s-0.8,1.2-1.5,1.6c-0.6,0.4-1.3,0.5-2.1,0.5c-0.6,0-1.4-0.2-2.4-0.6c-0.3-0.1-0.5-0.1-0.6-0.1
		c-0.3,0-0.5,0.2-0.7,0.7h-0.4l-0.2-4.5h0.5c0.4,1.2,1,2.1,1.7,2.7s1.4,0.9,2,0.9c0.4,0,0.8-0.1,1.1-0.4s0.4-0.6,0.4-1
		c0-0.4-0.1-0.8-0.4-1.1c-0.3-0.3-0.9-0.8-1.8-1.4c-1.4-1-2.3-1.7-2.7-2.2c-0.6-0.7-0.9-1.6-0.9-2.4c0-1,0.3-1.8,1-2.6
		s1.6-1.2,2.9-1.2c0.7,0,1.3,0.2,2,0.5c0.2,0.1,0.4,0.2,0.6,0.2c0.2,0,0.3,0,0.4-0.1c0.1-0.1,0.3-0.3,0.5-0.6H195.2z"/>
</g>
<g>
	<path d="M69.4,35.2l-1.7,0.3c-0.1-0.3-0.2-0.6-0.4-0.8s-0.5-0.3-0.8-0.3c-0.4,0-0.8,0.1-1,0.4c-0.3,0.3-0.4,0.8-0.4,1.5
		c0,0.8,0.1,1.3,0.4,1.7s0.6,0.5,1.1,0.5c0.3,0,0.6-0.1,0.8-0.3s0.4-0.5,0.4-1l1.7,0.3c-0.2,0.8-0.5,1.4-1,1.8
		c-0.5,0.4-1.2,0.6-2,0.6c-1,0-1.7-0.3-2.3-0.9s-0.9-1.4-0.9-2.5c0-1.1,0.3-1.9,0.9-2.5c0.6-0.6,1.3-0.9,2.3-0.9
		c0.8,0,1.4,0.2,1.9,0.5S69.2,34.5,69.4,35.2z"/>
	<path d="M70.2,36.4c0-0.6,0.1-1.1,0.4-1.7c0.3-0.5,0.7-1,1.2-1.2c0.5-0.3,1.1-0.4,1.7-0.4c1,0,1.8,0.3,2.4,1c0.6,0.6,1,1.5,1,2.4
		c0,1-0.3,1.8-1,2.5c-0.6,0.7-1.4,1-2.4,1c-0.6,0-1.2-0.1-1.7-0.4s-1-0.7-1.2-1.2C70.4,37.8,70.2,37.2,70.2,36.4z M72,36.5
		c0,0.7,0.2,1.2,0.5,1.5c0.3,0.3,0.7,0.5,1.1,0.5s0.8-0.2,1.1-0.5c0.3-0.3,0.5-0.8,0.5-1.5c0-0.6-0.2-1.1-0.5-1.5
		c-0.3-0.3-0.7-0.5-1.1-0.5s-0.8,0.2-1.1,0.5C72.2,35.4,72,35.9,72,36.5z"/>
	<path d="M78.1,33.2h1.6v0.9c0.6-0.7,1.3-1,2-1c0.4,0,0.8,0.1,1.1,0.3c0.3,0.2,0.6,0.4,0.8,0.8c0.3-0.4,0.6-0.6,0.9-0.8
		c0.3-0.2,0.7-0.3,1.1-0.3c0.5,0,0.9,0.1,1.2,0.3s0.6,0.5,0.7,0.9c0.1,0.3,0.2,0.7,0.2,1.4v4.2H86v-3.8c0-0.7-0.1-1.1-0.2-1.3
		c-0.2-0.2-0.4-0.4-0.7-0.4c-0.2,0-0.5,0.1-0.7,0.2S84.1,35,84,35.3s-0.1,0.7-0.1,1.4v3.2h-1.7v-3.6c0-0.6,0-1.1-0.1-1.2
		c-0.1-0.2-0.2-0.3-0.3-0.4c-0.1-0.1-0.3-0.1-0.5-0.1c-0.3,0-0.5,0.1-0.7,0.2c-0.2,0.1-0.4,0.4-0.5,0.6c-0.1,0.3-0.1,0.7-0.1,1.4
		v3.2h-1.7V33.2z"/>
	<path d="M89.2,33.2h1.6v0.9c0.6-0.7,1.3-1,2-1c0.4,0,0.8,0.1,1.1,0.3c0.3,0.2,0.6,0.4,0.8,0.8c0.3-0.4,0.6-0.6,0.9-0.8
		c0.3-0.2,0.7-0.3,1.1-0.3c0.5,0,0.9,0.1,1.2,0.3s0.6,0.5,0.7,0.9c0.1,0.3,0.2,0.7,0.2,1.4v4.2h-1.7v-3.8c0-0.7-0.1-1.1-0.2-1.3
		c-0.2-0.2-0.4-0.4-0.7-0.4c-0.2,0-0.5,0.1-0.7,0.2s-0.4,0.4-0.5,0.7S95,36,95,36.7v3.2h-1.7v-3.6c0-0.6,0-1.1-0.1-1.2
		c-0.1-0.2-0.2-0.3-0.3-0.4c-0.1-0.1-0.3-0.1-0.5-0.1c-0.3,0-0.5,0.1-0.7,0.2c-0.2,0.1-0.4,0.4-0.5,0.6C91,35.5,91,36,91,36.6v3.2
		h-1.7V33.2z"/>
	<path d="M104.3,37.7L106,38c-0.2,0.6-0.6,1.1-1.1,1.5c-0.5,0.3-1.1,0.5-1.8,0.5c-1.1,0-2-0.4-2.5-1.1c-0.4-0.6-0.7-1.4-0.7-2.3
		c0-1.1,0.3-1.9,0.9-2.6c0.6-0.6,1.3-0.9,2.2-0.9c1,0,1.7,0.3,2.3,1c0.6,0.6,0.8,1.6,0.8,3h-4.4c0,0.5,0.2,0.9,0.4,1.2
		c0.3,0.3,0.6,0.4,1,0.4c0.3,0,0.5-0.1,0.7-0.2S104.2,38.1,104.3,37.7z M104.4,36c0-0.5-0.1-0.9-0.4-1.1c-0.2-0.3-0.5-0.4-0.9-0.4
		c-0.4,0-0.7,0.1-0.9,0.4c-0.2,0.3-0.4,0.7-0.4,1.1H104.4z"/>
	<path d="M109.1,39.8h-1.7v-6.6h1.6v0.9c0.3-0.4,0.5-0.7,0.7-0.9s0.5-0.2,0.8-0.2c0.4,0,0.8,0.1,1.1,0.3l-0.5,1.5
		c-0.3-0.2-0.6-0.3-0.8-0.3c-0.2,0-0.4,0.1-0.6,0.2c-0.2,0.1-0.3,0.4-0.4,0.7c-0.1,0.4-0.1,1.1-0.1,2.2V39.8z"/>
	<path d="M118,35.2l-1.7,0.3c-0.1-0.3-0.2-0.6-0.4-0.8s-0.5-0.3-0.8-0.3c-0.4,0-0.8,0.1-1,0.4c-0.3,0.3-0.4,0.8-0.4,1.5
		c0,0.8,0.1,1.3,0.4,1.7s0.6,0.5,1.1,0.5c0.3,0,0.6-0.1,0.8-0.3c0.2-0.2,0.4-0.5,0.4-1l1.7,0.3c-0.2,0.8-0.5,1.4-1,1.8
		c-0.5,0.4-1.2,0.6-2,0.6c-1,0-1.7-0.3-2.3-0.9c-0.6-0.6-0.9-1.4-0.9-2.5c0-1.1,0.3-1.9,0.9-2.5s1.3-0.9,2.3-0.9
		c0.8,0,1.4,0.2,1.9,0.5C117.4,34,117.8,34.5,118,35.2z"/>
	<path d="M119.2,32.4v-1.6h1.7v1.6H119.2z M119.2,39.8v-6.6h1.7v6.6H119.2z"/>
	<path d="M123.8,35.3l-1.6-0.3c0.2-0.6,0.5-1.1,0.9-1.4c0.4-0.3,1.1-0.5,1.9-0.5c0.8,0,1.4,0.1,1.7,0.3c0.4,0.2,0.6,0.4,0.8,0.7
		c0.2,0.3,0.2,0.8,0.2,1.6l0,2c0,0.6,0,1,0.1,1.3s0.2,0.6,0.3,0.9h-1.7c0-0.1-0.1-0.3-0.2-0.5c0-0.1,0-0.2-0.1-0.2
		c-0.3,0.3-0.6,0.5-1,0.6c-0.3,0.1-0.7,0.2-1.1,0.2c-0.7,0-1.2-0.2-1.6-0.6c-0.4-0.4-0.6-0.8-0.6-1.4c0-0.4,0.1-0.7,0.3-1
		c0.2-0.3,0.4-0.5,0.7-0.7c0.3-0.2,0.8-0.3,1.4-0.4c0.8-0.2,1.4-0.3,1.7-0.4v-0.2c0-0.3-0.1-0.6-0.2-0.7s-0.5-0.2-0.9-0.2
		c-0.3,0-0.6,0.1-0.7,0.2C124.1,34.7,123.9,34.9,123.8,35.3z M126.2,36.7c-0.2,0.1-0.6,0.2-1.1,0.3c-0.5,0.1-0.8,0.2-0.9,0.3
		c-0.2,0.2-0.3,0.4-0.3,0.6c0,0.2,0.1,0.5,0.3,0.6s0.4,0.3,0.7,0.3c0.3,0,0.6-0.1,0.9-0.3c0.2-0.2,0.3-0.3,0.4-0.6
		c0-0.1,0.1-0.4,0.1-0.8V36.7z"/>
	<path d="M129.5,39.8v-9.1h1.7v9.1H129.5z"/>
	<path d="M136.2,33.2h1.6v1c0.2-0.3,0.5-0.6,0.9-0.8c0.4-0.2,0.8-0.3,1.2-0.3c0.8,0,1.4,0.3,1.9,0.9c0.5,0.6,0.8,1.4,0.8,2.5
		c0,1.1-0.3,1.9-0.8,2.6c-0.5,0.6-1.2,0.9-1.9,0.9c-0.4,0-0.7-0.1-1-0.2c-0.3-0.1-0.6-0.4-0.9-0.7v3.3h-1.7V33.2z M137.9,36.4
		c0,0.7,0.1,1.3,0.4,1.6s0.6,0.5,1.1,0.5c0.4,0,0.7-0.2,1-0.5c0.3-0.3,0.4-0.9,0.4-1.6c0-0.7-0.1-1.2-0.4-1.5s-0.6-0.5-1-0.5
		c-0.4,0-0.8,0.2-1.1,0.5C138.1,35.3,137.9,35.8,137.9,36.4z"/>
	<path d="M145.5,39.8h-1.7v-6.6h1.6v0.9c0.3-0.4,0.5-0.7,0.7-0.9s0.5-0.2,0.8-0.2c0.4,0,0.8,0.1,1.1,0.3l-0.5,1.5
		c-0.3-0.2-0.6-0.3-0.8-0.3c-0.2,0-0.4,0.1-0.6,0.2c-0.2,0.1-0.3,0.4-0.4,0.7c-0.1,0.4-0.1,1.1-0.1,2.2V39.8z"/>
	<path d="M148.3,36.4c0-0.6,0.1-1.1,0.4-1.7c0.3-0.5,0.7-1,1.2-1.2c0.5-0.3,1.1-0.4,1.7-0.4c1,0,1.8,0.3,2.4,1c0.6,0.6,1,1.5,1,2.4
		c0,1-0.3,1.8-1,2.5c-0.6,0.7-1.4,1-2.4,1c-0.6,0-1.2-0.1-1.7-0.4c-0.5-0.3-1-0.7-1.2-1.2C148.4,37.8,148.3,37.2,148.3,36.4z
		 M150,36.5c0,0.7,0.2,1.2,0.5,1.5c0.3,0.3,0.7,0.5,1.1,0.5c0.5,0,0.8-0.2,1.1-0.5c0.3-0.3,0.5-0.8,0.5-1.5c0-0.6-0.2-1.1-0.5-1.5
		c-0.3-0.3-0.7-0.5-1.1-0.5c-0.5,0-0.8,0.2-1.1,0.5C150.2,35.4,150,35.9,150,36.5z"/>
	<path d="M156.2,33.2h1.6v1c0.2-0.3,0.5-0.6,0.9-0.8c0.4-0.2,0.8-0.3,1.2-0.3c0.8,0,1.4,0.3,1.9,0.9c0.5,0.6,0.8,1.4,0.8,2.5
		c0,1.1-0.3,1.9-0.8,2.6c-0.5,0.6-1.2,0.9-1.9,0.9c-0.4,0-0.7-0.1-1-0.2c-0.3-0.1-0.6-0.4-0.9-0.7v3.3h-1.7V33.2z M157.9,36.4
		c0,0.7,0.1,1.3,0.4,1.6s0.6,0.5,1.1,0.5c0.4,0,0.7-0.2,1-0.5c0.3-0.3,0.4-0.9,0.4-1.6c0-0.7-0.1-1.2-0.4-1.5s-0.6-0.5-1-0.5
		c-0.4,0-0.8,0.2-1.1,0.5C158.1,35.3,157.9,35.8,157.9,36.4z"/>
	<path d="M167.7,37.7l1.7,0.3c-0.2,0.6-0.6,1.1-1.1,1.5c-0.5,0.3-1.1,0.5-1.8,0.5c-1.1,0-2-0.4-2.5-1.1c-0.4-0.6-0.6-1.4-0.6-2.3
		c0-1.1,0.3-1.9,0.9-2.6c0.6-0.6,1.3-0.9,2.2-0.9c1,0,1.7,0.3,2.3,1c0.6,0.6,0.8,1.6,0.8,3h-4.4c0,0.5,0.2,0.9,0.4,1.2
		c0.3,0.3,0.6,0.4,1,0.4c0.3,0,0.5-0.1,0.7-0.2S167.6,38.1,167.7,37.7z M167.8,36c0-0.5-0.1-0.9-0.4-1.1c-0.2-0.3-0.5-0.4-0.9-0.4
		c-0.4,0-0.7,0.1-0.9,0.4c-0.2,0.3-0.4,0.7-0.4,1.1H167.8z"/>
	<path d="M172.5,39.8h-1.7v-6.6h1.6v0.9c0.3-0.4,0.5-0.7,0.7-0.9s0.5-0.2,0.8-0.2c0.4,0,0.8,0.1,1.1,0.3l-0.5,1.5
		c-0.3-0.2-0.6-0.3-0.8-0.3c-0.2,0-0.4,0.1-0.6,0.2c-0.2,0.1-0.3,0.4-0.4,0.7c-0.1,0.4-0.1,1.1-0.1,2.2V39.8z"/>
	<path d="M178.6,33.2v1.4h-1.2v2.6c0,0.5,0,0.8,0,0.9c0,0.1,0.1,0.2,0.2,0.2c0.1,0.1,0.2,0.1,0.3,0.1c0.2,0,0.4-0.1,0.7-0.2l0.1,1.3
		c-0.4,0.2-0.9,0.3-1.4,0.3c-0.3,0-0.6-0.1-0.8-0.2c-0.3-0.1-0.4-0.2-0.6-0.4c-0.1-0.2-0.2-0.4-0.2-0.7c0-0.2-0.1-0.6-0.1-1.2v-2.9
		h-0.8v-1.4h0.8v-1.3l1.7-1v2.3H178.6z"/>
	<path d="M179.7,32.4v-1.6h1.7v1.6H179.7z M179.7,39.8v-6.6h1.7v6.6H179.7z"/>
	<path d="M186.9,37.7l1.7,0.3c-0.2,0.6-0.6,1.1-1.1,1.5c-0.5,0.3-1.1,0.5-1.8,0.5c-1.1,0-2-0.4-2.5-1.1c-0.4-0.6-0.6-1.4-0.6-2.3
		c0-1.1,0.3-1.9,0.9-2.6c0.6-0.6,1.3-0.9,2.2-0.9c1,0,1.7,0.3,2.3,1c0.6,0.6,0.8,1.6,0.8,3h-4.4c0,0.5,0.2,0.9,0.4,1.2
		c0.3,0.3,0.6,0.4,1,0.4c0.3,0,0.5-0.1,0.7-0.2S186.8,38.1,186.9,37.7z M187,36c0-0.5-0.1-0.9-0.4-1.1c-0.2-0.3-0.5-0.4-0.9-0.4
		c-0.4,0-0.7,0.1-0.9,0.4c-0.2,0.3-0.4,0.7-0.4,1.1H187z"/>
	<path d="M189.4,37.9l1.7-0.3c0.1,0.3,0.2,0.6,0.5,0.8c0.2,0.2,0.5,0.3,1,0.3c0.4,0,0.8-0.1,1-0.2c0.2-0.1,0.2-0.3,0.2-0.5
		c0-0.1,0-0.2-0.1-0.3c-0.1-0.1-0.3-0.2-0.6-0.2c-1.4-0.3-2.3-0.6-2.7-0.8c-0.5-0.4-0.8-0.8-0.8-1.5c0-0.6,0.2-1,0.7-1.4
		c0.5-0.4,1.1-0.6,2.1-0.6c0.9,0,1.6,0.1,2,0.4c0.4,0.3,0.7,0.7,0.9,1.3l-1.6,0.3c-0.1-0.3-0.2-0.5-0.4-0.6
		c-0.2-0.1-0.5-0.2-0.8-0.2c-0.5,0-0.8,0.1-1,0.2c-0.1,0.1-0.2,0.2-0.2,0.4c0,0.1,0.1,0.2,0.2,0.3c0.2,0.1,0.7,0.3,1.6,0.5
		c0.9,0.2,1.6,0.5,1.9,0.8c0.4,0.3,0.5,0.7,0.5,1.3c0,0.6-0.3,1.1-0.8,1.6s-1.2,0.6-2.2,0.6c-0.9,0-1.6-0.2-2.1-0.5
		C189.9,39.1,189.6,38.6,189.4,37.9z"/>
</g>
</svg>
