<svg id="Layer_1" data-name="Layer 1" xmlns="http://www.w3.org/2000/svg" viewBox="0 0 530.73 132.68"><defs><style>.cls-1{fill:#001689;}.cls-2{fill:#80bc00;}.cls-3{fill:#fff;}</style></defs><title>JP_Logo_2C</title><path class="cls-1" d="M176.7,243.75v85q0,19.11-.4,24.56a18.7,18.7,0,0,1-3.61,9.87,16.46,16.46,0,0,1-8.68,6.1c-3.67,1.14-9.17,1.69-16.55,1.69H130.81V348.76c2,.15,3.5.22,4.4.22a8.73,8.73,0,0,0,5.68-1.71,6.41,6.41,0,0,0,2.39-4.25,92.75,92.75,0,0,0,.32-9.75V243.75Z" transform="translate(-130.81 -241.02)"/><path class="cls-1" d="M245.26,243.75l19,127.25H230.5l-1.79-22.86H216.56L214.71,371H180.57l16.84-127.25Zm-17.44,81.87q-2.41-21.71-5.12-53.6-5,36.66-6.25,53.6Z" transform="translate(-130.81 -241.02)"/><polygon class="cls-1" points="212.52 2.72 212.52 129.97 183.5 129.97 166.28 72.12 166.28 129.97 138.66 129.97 138.66 2.72 166.28 2.72 184.89 60.01 184.89 2.72 212.52 2.72"/><path class="cls-1" d="M406.84,243.75h33.32c9,0,15.95.7,20.81,2.13s8.49,3.46,10.93,6.13a21.18,21.18,0,0,1,4.94,9.72q1.31,5.7,1.3,17.65v11.1q0,12.19-2.51,17.77c-1.69,3.75-4.76,6.58-9.25,8.58s-10.34,3-17.57,3h-8.87V371h-33.1Zm33.1,21.83v32.34c.94.05,1.75.07,2.45.07q4.56,0,6.33-2.23t1.78-9.3V276c0-4.34-.68-7.17-2-8.47s-4.22-2-8.52-2" transform="translate(-130.81 -241.02)"/><path class="cls-1" d="M484.79,243.75h23.42q23.42,0,31.72,1.82a21.75,21.75,0,0,1,13.49,9.23c3.48,5,5.26,12.87,5.26,23.72,0,9.91-1.26,16.59-3.71,20s-7.32,5.47-14.55,6.15c6.54,1.61,10.94,3.8,13.21,6.53a19.52,19.52,0,0,1,4.21,7.49c.55,2.27.84,8.55.84,18.8V371H528V328.76c0-6.81-.55-11-1.62-12.66s-3.89-2.42-8.46-2.42V371h-33.1Zm33.1,21.83v28.31c3.73,0,6.33-.5,7.83-1.53S528,288,528,282.41v-7c0-4-.74-6.67-2.19-7.94s-4.07-1.89-7.89-1.89" transform="translate(-130.81 -241.02)"/><path class="cls-1" d="M643.2,318.26c0,12.79-.32,21.86-.91,27.18a30.45,30.45,0,0,1-18.52,24.74,46.45,46.45,0,0,1-18.87,3.53,48.15,48.15,0,0,1-18.37-3.33,30.68,30.68,0,0,1-19-24.59q-.93-7.85-.94-27.53V296.47q0-19.2.9-27.17A30.38,30.38,0,0,1,586,244.55,46.8,46.8,0,0,1,604.9,241a48.38,48.38,0,0,1,18.38,3.34,30.7,30.7,0,0,1,19,24.59q.94,7.88,1,27.52Zm-33.09-41.89c0-5.93-.34-9.72-1-11.37a3.94,3.94,0,0,0-4.06-2.49,4.55,4.55,0,0,0-4,2c-.94,1.34-1.39,5.3-1.39,11.86v59.55q0,11.13.92,13.7c.58,1.74,2,2.6,4.2,2.6a4.07,4.07,0,0,0,4.34-3q1-3,1-14.24Z" transform="translate(-130.81 -241.02)"/><path class="cls-1" d="M659.3,254.15a7.85,7.85,0,0,1-.06,11,7.94,7.94,0,0,1-5.56,2.29,7.92,7.92,0,0,1-7.83-7.85,7.88,7.88,0,0,1,2.37-5.59,7.49,7.49,0,0,1,5.46-2.24,7.75,7.75,0,0,1,5.62,2.35m-10.26.71a6.81,6.81,0,0,0-2,4.77,6.71,6.71,0,0,0,6.58,6.68,6.8,6.8,0,0,0,4.83-1.95,6.32,6.32,0,0,0,2-4.62,6.66,6.66,0,0,0-6.67-6.79,6.4,6.4,0,0,0-4.67,1.91m4.84.24c2.47,0,3.71.85,3.71,2.39a2.33,2.33,0,0,1-2,2.43l2,4h-2.11l-1.73-3.66h-1.37v3.66h-1.89V255.1Zm-1.5,4h1.24c1.39,0,2-.39,2-1.35s-.7-1.41-2.13-1.41h-1.15Z" transform="translate(-130.81 -241.02)"/><circle class="cls-2" cx="244.09" cy="66.34" r="42.65"/><path class="cls-3" d="M366.17,317.44V292.39c0-2.13-.14-4.73,3.92-4.73h33.47c5.36-.05,7.13,2.06,7.13,8.88s-1.77,8.95-6,8.89-22.15,0-22.15,0a1.62,1.62,0,0,0-1.51,1.56c0,1.42.88,1.56,2.1,1.69s13.57,0,13.57,0c2.45,0,6.18,1.56,6.22,7.17,0,3.48-1.7,7.19-6.22,7.16-4.73,0-22.36,0-22.36,0v-5.62h19.87s2.12.09,2.09-1.6-2.5-1.43-2.5-1.43l-12.77-.14s-6.68.28-6.69-7.37c0-7.48,7-7.09,9.73-7.09h17.23a3,3,0,0,0,3.15-3.22c0-3.38-3.82-3.34-3.82-3.34H374.1a1.82,1.82,0,0,0-1.69,1.83v28l-28,0s-7.26-.61-7.26-8.75c0-6.85,4.77-8.49,4.77-8.49s3.38,5.54,3.38,5.54a3.11,3.11,0,0,0-2,3.05,3.25,3.25,0,0,0,2.63,3.07h20.19" transform="translate(-130.81 -241.02)"/><path class="cls-2" d="M382.26,312.28a5.21,5.21,0,0,1-5.21-5.2v-.22a5.22,5.22,0,0,1,5.21-5.21h11.67a.84.84,0,1,1,0,1.68H382.18a3.4,3.4,0,0,0-3.4,3.4v.45a3.4,3.4,0,0,0,3.4,3.4h11.76a.85.85,0,1,1,0,1.7H382.26" transform="translate(-130.81 -241.02)"/></svg>